<svg xmlns="http://www.w3.org/2000/svg" width="18.988" height="13.085" viewBox="0 0 18.988 13.085"><defs><style>.a{fill:#40494d;}</style></defs><g transform="translate(-20.986 -98)"><path class="a" d="M18.558,67.954H.43a.43.43,0,0,1,0-.861H18.558a.43.43,0,1,1,0,.861Zm-1.671-1.825H11a.43.43,0,0,1,0-.861h5.46V55.73H2.532v9.539h5.46a.43.43,0,0,1,0,.861H2.1a.43.43,0,0,1-.43-.43V55.3a.43.43,0,0,1,.43-.43H16.886a.43.43,0,0,1,.43.43V65.7A.43.43,0,0,1,16.886,66.129Zm-7.35,0H9.451a.43.43,0,0,1,0-.861h.085a.43.43,0,0,1,0,.861Zm-.043-3.314a.431.431,0,0,1-.117-.016h0l-.008,0-2.128-.665a.43.43,0,0,1-.3-.411V58.613a.43.43,0,0,1,.559-.411l2,.625,2-.625a.43.43,0,0,1,.559.411V61.72a.43.43,0,0,1-.3.411L9.624,62.8l-.018.005h0a.429.429,0,0,1-.1.014H9.494Zm.43-3.22v2.2l1.268-.4V59.2ZM7.8,61.4l1.268.4v-2.2L7.8,59.2Z" transform="translate(20.986 43.131)"/></g></svg>